<?xml version="1.0" encoding="UTF-8"?>
<!DOCTYPE svg PUBLIC "-//W3C//DTD SVG 1.1//EN" "http://www.w3.org/Graphics/SVG/1.1/DTD/svg11.dtd">
<!-- Creator: CorelDRAW 2018 (64-Bit) -->
<svg xmlns="http://www.w3.org/2000/svg" xml:space="preserve" width="182.912mm" height="50mm" version="1.1" style="shape-rendering:geometricPrecision; text-rendering:geometricPrecision; image-rendering:optimizeQuality; fill-rule:evenodd; clip-rule:evenodd"
viewBox="0 0 18547.75 5070.13"
 xmlns:xlink="http://www.w3.org/1999/xlink">
 <defs>
  <style type="text/css">
   <![CDATA[
    .str0 {stroke:white;stroke-width:11.96;stroke-miterlimit:22.9256}
    .fil3 {fill:none}
    .fil1 {fill:#299A00}
    .fil2 {fill:white}
    .fil0 {fill:black;fill-rule:nonzero}
   ]]>
  </style>
 </defs>
 <g id="Layer_x0020_1">
  <metadata id="CorelCorpID_0Corel-Layer"/>
  <g id="_2231723374848">
   <path class="fil0" d="M8255.09 1313.72l36.72 -381.96 44.07 0 36.72 381.96 -117.51 0zm-275.45 -705.14l-179.97 1125.66 0 159.76 400.33 0 25.71 -258.91 176.28 0 23.88 258.91 402.15 0 0 -159.76 -179.97 -1125.66 -668.41 0zm1432.32 466.44l-71.62 0 0 -466.44 -402.14 0 0 1285.42 402.14 0 0 -497.64 71.62 0 108.34 497.64 400.33 0 0 -159.76 -179.98 -521.5 148.75 -444.4 0 -159.76 -380.12 0 -97.32 466.44zm1199.1 818.98l347.09 -1125.66 0 -159.76 -372.79 0 -77.13 503.16 -44.07 0 -102.83 -503.16 -385.62 0 0 159.76 332.36 820.83 -51.4 145.07 0 159.76 354.39 0zm852.07 0l336.04 0 99.18 -616.99 33.06 0 0 616.99 391.13 0 0 -159.76 -130.38 -1125.66 -449.89 0 -97.34 506.82 -27.55 0 -97.32 -506.82 -448.06 0 -132.22 1125.66 0 159.76 392.98 0 0 -616.99 31.21 0 99.16 616.99zm1476.39 0l347.08 -1125.66 0 -159.76 -372.79 0 -77.13 503.16 -44.07 0 -102.82 -503.16 -385.62 0 0 159.76 332.36 820.83 -51.4 145.07 0 159.76 354.39 0zm1267.05 0l0 -1285.42 -769.4 0 -242.39 1125.66 0 159.76 403.97 0 150.59 -964.05 56.93 0 0 964.05 400.31 0zm530.7 -964.05l159.76 0 0 240.55 -159.76 0 0 -240.55zm561.91 -321.37l-802.46 0c-95.5,0 -161.61,67.95 -161.61,161.61l0 501.31c0,62.43 45.92,130.36 106.51,146.89l-124.88 315.85 0 159.76 392.98 0 106.51 -402.15 80.79 0 0 402.15 402.15 0 0 -1285.42zm332.38 323.18l0 962.24 402.15 0 0 -962.24 192.81 0 64.29 -163.42 0 -159.76 -899.8 0 0 323.18 240.55 0zm1312.96 0l0 640.88 -159.76 0 0 -640.88 159.76 0zm240.55 962.24c95.5,0 161.61,-66.1 161.61,-159.76l0 -965.9c0,-93.66 -66.1,-159.76 -161.61,-159.76l-640.87 0c-95.47,0 -161.57,66.1 -161.57,159.76l0 965.9c0,93.66 66.1,159.76 161.57,159.76l640.87 0zm710.68 -962.24l159.76 0 0 240.58 -159.76 0 0 -240.58zm400.31 561.93c95.49,0 161.6,-67.95 161.6,-161.6l0 -563.76c0,-93.66 -66.1,-159.76 -161.6,-159.76l-802.46 0 0 1285.42 402.15 0 0 -400.31 400.31 0z"/>
   <path class="fil0" d="M8630.79 2380.51l-841.46 0 0 2689.62 2240.06 0 0 -672.42 -222.86 0 0 -2017.2 -841.46 0 0 2017.2 -334.28 0 0 -2017.2zm3388.89 2689.62l0 -672.42 -960.59 0 0 -368.85 826.08 0 0 -672.37 -826.08 0 0 -299.75 826.08 0 134.51 -341.95 0 -334.28 -1798.18 0 0 2689.62 1798.18 0zm1068.14 -1713.64l0 -975.98 -837.61 0 0 2689.62 837.61 0 0 -1041.27 338.14 0 0 1041.27 837.6 0 0 -2689.62 -837.6 0 0 975.98 -338.14 0zm1871.2 -299.75l0 2013.39 841.46 0 0 -2013.39 403.44 0 134.51 -341.95 0 -334.28 -1882.73 0 0 676.23 503.32 0zm2412.98 0l334.27 0 0 503.37 -334.27 0 0 -503.37zm837.6 1175.78c199.81,0 338.14,-142.18 338.14,-338.14l0 -1179.6c0,-195.96 -138.32,-334.28 -338.14,-334.28l-1679.05 0 0 2689.62 841.46 0 0 -837.61 837.6 0z"/>
   <g>
    <g>
     <path class="fil1" d="M2445.54 0l-865.87 0c-46.02,0 -83.66,37.64 -83.66,83.66l0 1056.75c0,46.02 37.64,83.66 83.66,83.66l865.87 0c46.02,0 83.66,-37.64 83.66,-83.66l0 -1056.75c0,-46.02 -37.64,-83.66 -83.66,-83.66z"/>
     <path class="fil1" d="M5924.6 0l-865.87 0c-46.02,0 -83.66,37.64 -83.66,83.66l0 1056.75c0,46.02 37.64,83.66 83.66,83.66l865.87 0c46.02,0 83.66,-37.64 83.66,-83.66l0 -1056.75c0,-46.02 -37.64,-83.66 -83.66,-83.66z"/>
     <polygon class="fil1" points="7579.8,606.23 19.37,606.23 19.37,5035.12 7579.8,5035.12 "/>
    </g>
    <polygon class="fil2" points="2611.81,2122.14 1221.18,2122.14 1221.18,2419.17 2611.81,2419.17 "/>
    <g>
     <polygon class="fil2" points="6175.7,2122.14 4785.09,2122.14 4785.09,2419.17 6175.7,2419.17 "/>
     <polygon class="fil2" points="5331.88,1575.34 5331.88,2965.96 5628.91,2965.96 5628.91,1575.34 "/>
    </g>
    <polyline class="fil3" points="7579.8,606.23 4190.43,5035.12 19.37,606.23 4190.43,5035.12 "/>
    <g>
     <line class="fil3 str0" x1="7579.8" y1="5035.12" x2="6082.05" y2= "612.04" />
     <line class="fil3 str0" x1="4190.43" y1="5035.12" x2="2967.51" y2= "606.23" />
     <polyline class="fil3 str0" points="989.96,606.23 19.37,3256.43 2023.15,606.23 "/>
     <polyline class="fil3 str0" points="19.37,606.23 4053.39,5035.12 7579.8,606.23 "/>
    </g>
    <g>
     <polygon class="fil2" points="1992.09,4093.33 5597.66,4093.33 5597.66,4283.09 1992.09,4283.09 "/>
     <polygon class="fil2" points="2176.74,4265.43 2046.96,3773.05 1859.59,3790.25 1989.37,4282.63 "/>
     <polygon class="fil2" points="5412.51,4264.51 5542.29,3772.12 5729.66,3789.31 5599.89,4281.7 "/>
    </g>
   </g>
  </g>
 </g>
</svg>
